<svg width="200" height="100" viewBox="0 0 200 100" fill="none" xmlns="http://www.w3.org/2000/svg">
<rect width="200" height="100" fill="white"/>
<path d="M5.86914 58.4512C3.58398 56.3301 2.44141 53.6992 2.44141 50.5586C2.44141 47.418 3.58398 44.7988 5.86914 42.7012C8.16602 40.5918 10.9609 39.5371 14.2539 39.5371C18.7891 39.5371 22.041 41.0605 24.0098 44.1074L18.4199 48.1504C18.0332 47.5293 17.4883 47.0195 16.7852 46.6211C16.082 46.2227 15.3672 46.0234 14.6406 46.0234C13.4219 46.0234 12.373 46.4746 11.4941 47.377C10.6152 48.2793 10.1758 49.3457 10.1758 50.5762C10.1758 51.7949 10.6152 52.8613 11.4941 53.7754C12.373 54.6777 13.4219 55.1289 14.6406 55.1289C15.3555 55.1289 16.0645 54.9297 16.7676 54.5312C17.4824 54.1211 18.0332 53.5996 18.4199 52.9668L24.0098 57.0098C22.0176 60.0801 18.7656 61.6152 14.2539 61.6152C10.9609 61.6152 8.16602 60.5605 5.86914 58.4512ZM49.0586 52.6504H33.7656C33.9531 53.4941 34.4395 54.2148 35.2246 54.8125C36.0215 55.4102 37.0469 55.709 38.3008 55.709C40.2461 55.709 42.0098 55.0938 43.5918 53.8633L47.4062 57.8008C45.9883 59.043 44.5996 59.9922 43.2402 60.6484C41.8926 61.293 40.1875 61.6152 38.125 61.6152C34.4805 61.5449 31.6094 60.4902 29.5117 58.4512C27.4258 56.4121 26.3828 53.7812 26.3828 50.5586C26.3828 47.418 27.4902 44.7988 29.7051 42.7012C31.9316 40.5918 34.6387 39.5371 37.8262 39.5371C41.0254 39.5371 43.7324 40.5918 45.9473 42.7012C48.1621 44.7988 49.2695 47.418 49.2695 50.5586C49.2695 51.3086 49.1992 52.0059 49.0586 52.6504ZM37.8262 45.5488C36.8418 45.5488 35.9746 45.8418 35.2246 46.4277C34.4863 47.002 34 47.6816 33.7656 48.4668H41.9043C41.6348 47.6699 41.125 46.9844 40.375 46.4102C39.6367 45.8359 38.7871 45.5488 37.8262 45.5488ZM65.002 39.502C66.3496 39.502 67.7441 39.8535 69.1855 40.5566L66.373 47.1836C65.8691 46.8672 65.1484 46.709 64.2109 46.709C63.0156 46.709 62.0488 47.0898 61.3105 47.8516C60.584 48.6016 60.2207 49.6504 60.2207 50.998V61H52.873V40.1523H59.9922V43.4043L60.1152 43.4746C60.5254 42.4199 61.1582 41.4941 62.0137 40.6973C62.8809 39.9004 63.877 39.502 65.002 39.502ZM85.1816 40.1523H92.5293V61H85.1816V58.0469L85.0059 57.9766C84.4316 59.0547 83.6406 59.9336 82.6328 60.6133C81.625 61.2812 80.4707 61.6152 79.1699 61.6152C76.7441 61.6152 74.8809 60.8887 73.5801 59.4355C72.291 57.9824 71.6465 55.9141 71.6465 53.2305V40.1523H78.9941V51.7539C78.9941 52.5742 79.2754 53.2949 79.8379 53.916C80.4004 54.5371 81.1504 54.8477 82.0879 54.8477C83.0254 54.8477 83.7754 54.5371 84.3379 53.916C84.9004 53.2832 85.1816 52.5625 85.1816 51.7539V40.1523Z" fill="#1A73E8"/>
<path d="M105.2 61C101.04 61 98.72 57.76 98.72 53.12V31.8H101.92V53.04C101.92 55.72 102.92 57.72 105.2 57.72V61Z" fill="#1A73E8"/>
<path d="M120.033 62C113.593 62 109.433 56.36 109.433 50.92C109.433 44.96 113.393 39.88 119.553 39.88C126.233 39.88 131.033 44.76 129.433 52.36H112.913C113.113 55.88 116.273 59.08 120.393 59.12C122.153 59.12 125.793 58.16 126.713 56.56L129.233 58.52C127.153 60.92 123.713 62 120.033 62ZM112.913 49.56H119.613H126.313C126.793 46.92 125.033 42.76 119.633 42.76C115.393 42.76 112.913 46.32 112.913 49.56Z" fill="#1A73E8"/>
<path d="M142.957 61C136.997 61 132.157 56.16 132.157 50.2C132.157 44.28 136.997 39.44 142.957 39.44C148.877 39.44 153.717 44.28 153.717 50.2V61H150.517V56.52C149.117 59.16 146.237 61 142.957 61ZM142.957 57.8C147.117 57.8 150.517 54.4 150.517 50.2C150.517 46.04 147.117 42.64 142.957 42.64C138.757 42.64 135.357 46.04 135.357 50.2C135.357 54.4 138.757 57.8 142.957 57.8Z" fill="#1A73E8"/>
<path d="M160.243 61V40.08H163.323V42.68C164.483 40.64 167.403 39.8 170.403 40.08V43.32C166.843 42.84 163.443 44.72 163.443 48V61H160.243Z" fill="#1A73E8"/>
<path d="M174.683 61V50.04C174.683 43.72 178.803 39.88 184.643 39.88C190.483 39.88 194.563 43.72 194.563 50.04V61H191.363V50.04C191.363 45.52 188.763 43.08 184.643 43.08C180.523 43.08 177.883 45.6 177.883 50.04V61H174.683Z" fill="#1A73E8"/>
</svg>
