<svg width="200" height="66" viewBox="0 0 200 66" fill="none" xmlns="http://www.w3.org/2000/svg">
<path d="M5.86914 44.4512C3.58398 42.3301 2.44141 39.6992 2.44141 36.5586C2.44141 33.418 3.58398 30.7988 5.86914 28.7012C8.16602 26.5918 10.9609 25.5371 14.2539 25.5371C18.7891 25.5371 22.041 27.0605 24.0098 30.1074L18.4199 34.1504C18.0332 33.5293 17.4883 33.0195 16.7852 32.6211C16.082 32.2227 15.3672 32.0234 14.6406 32.0234C13.4219 32.0234 12.373 32.4746 11.4941 33.377C10.6152 34.2793 10.1758 35.3457 10.1758 36.5762C10.1758 37.7949 10.6152 38.8613 11.4941 39.7754C12.373 40.6777 13.4219 41.1289 14.6406 41.1289C15.3555 41.1289 16.0645 40.9297 16.7676 40.5312C17.4824 40.1211 18.0332 39.5996 18.4199 38.9668L24.0098 43.0098C22.0176 46.0801 18.7656 47.6152 14.2539 47.6152C10.9609 47.6152 8.16602 46.5605 5.86914 44.4512ZM49.0586 38.6504H33.7656C33.9531 39.4941 34.4395 40.2148 35.2246 40.8125C36.0215 41.4102 37.0469 41.709 38.3008 41.709C40.2461 41.709 42.0098 41.0938 43.5918 39.8633L47.4062 43.8008C45.9883 45.043 44.5996 45.9922 43.2402 46.6484C41.8926 47.293 40.1875 47.6152 38.125 47.6152C34.4805 47.5449 31.6094 46.4902 29.5117 44.4512C27.4258 42.4121 26.3828 39.7812 26.3828 36.5586C26.3828 33.418 27.4902 30.7988 29.7051 28.7012C31.9316 26.5918 34.6387 25.5371 37.8262 25.5371C41.0254 25.5371 43.7324 26.5918 45.9473 28.7012C48.1621 30.7988 49.2695 33.418 49.2695 36.5586C49.2695 37.3086 49.1992 38.0059 49.0586 38.6504ZM37.8262 31.5488C36.8418 31.5488 35.9746 31.8418 35.2246 32.4277C34.4863 33.002 34 33.6816 33.7656 34.4668H41.9043C41.6348 33.6699 41.125 32.9844 40.375 32.4102C39.6367 31.8359 38.7871 31.5488 37.8262 31.5488ZM65.002 25.502C66.3496 25.502 67.7441 25.8535 69.1855 26.5566L66.373 33.1836C65.8691 32.8672 65.1484 32.709 64.2109 32.709C63.0156 32.709 62.0488 33.0898 61.3105 33.8516C60.584 34.6016 60.2207 35.6504 60.2207 36.998V47H52.873V26.1523H59.9922V29.4043L60.1152 29.4746C60.5254 28.4199 61.1582 27.4941 62.0137 26.6973C62.8809 25.9004 63.877 25.502 65.002 25.502ZM85.1816 26.1523H92.5293V47H85.1816V44.0469L85.0059 43.9766C84.4316 45.0547 83.6406 45.9336 82.6328 46.6133C81.625 47.2812 80.4707 47.6152 79.1699 47.6152C76.7441 47.6152 74.8809 46.8887 73.5801 45.4355C72.291 43.9824 71.6465 41.9141 71.6465 39.2305V26.1523H78.9941V37.7539C78.9941 38.5742 79.2754 39.2949 79.8379 39.916C80.4004 40.5371 81.1504 40.8477 82.0879 40.8477C83.0254 40.8477 83.7754 40.5371 84.3379 39.916C84.9004 39.2832 85.1816 38.5625 85.1816 37.7539V26.1523Z" fill="#212427"/>
<path d="M105.2 47C101.04 47 98.72 43.76 98.72 39.12V17.8H101.92V39.04C101.92 41.72 102.92 43.72 105.2 43.72V47Z" fill="#212427"/>
<path d="M120.033 48C113.593 48 109.433 42.36 109.433 36.92C109.433 30.96 113.393 25.88 119.553 25.88C126.233 25.88 131.033 30.76 129.433 38.36H112.913C113.113 41.88 116.273 45.08 120.393 45.12C122.153 45.12 125.793 44.16 126.713 42.56L129.233 44.52C127.153 46.92 123.713 48 120.033 48ZM112.913 35.56H119.613H126.313C126.793 32.92 125.033 28.76 119.633 28.76C115.393 28.76 112.913 32.32 112.913 35.56Z" fill="#212427"/>
<path d="M142.957 47C136.997 47 132.157 42.16 132.157 36.2C132.157 30.28 136.997 25.44 142.957 25.44C148.877 25.44 153.717 30.28 153.717 36.2V47H150.517V42.52C149.117 45.16 146.237 47 142.957 47ZM142.957 43.8C147.117 43.8 150.517 40.4 150.517 36.2C150.517 32.04 147.117 28.64 142.957 28.64C138.757 28.64 135.357 32.04 135.357 36.2C135.357 40.4 138.757 43.8 142.957 43.8Z" fill="#212427"/>
<path d="M160.243 47V26.08H163.323V28.68C164.483 26.64 167.403 25.8 170.403 26.08V29.32C166.843 28.84 163.443 30.72 163.443 34V47H160.243Z" fill="#212427"/>
<path d="M174.683 47V36.04C174.683 29.72 178.803 25.88 184.643 25.88C190.483 25.88 194.563 29.72 194.563 36.04V47H191.363V36.04C191.363 31.52 188.763 29.08 184.643 29.08C180.523 29.08 177.883 31.6 177.883 36.04V47H174.683Z" fill="#212427"/>
<path d="M5.86914 44.4512C3.58398 42.3301 2.44141 39.6992 2.44141 36.5586C2.44141 33.418 3.58398 30.7988 5.86914 28.7012C8.16602 26.5918 10.9609 25.5371 14.2539 25.5371C18.7891 25.5371 22.041 27.0605 24.0098 30.1074L18.4199 34.1504C18.0332 33.5293 17.4883 33.0195 16.7852 32.6211C16.082 32.2227 15.3672 32.0234 14.6406 32.0234C13.4219 32.0234 12.373 32.4746 11.4941 33.377C10.6152 34.2793 10.1758 35.3457 10.1758 36.5762C10.1758 37.7949 10.6152 38.8613 11.4941 39.7754C12.373 40.6777 13.4219 41.1289 14.6406 41.1289C15.3555 41.1289 16.0645 40.9297 16.7676 40.5312C17.4824 40.1211 18.0332 39.5996 18.4199 38.9668L24.0098 43.0098C22.0176 46.0801 18.7656 47.6152 14.2539 47.6152C10.9609 47.6152 8.16602 46.5605 5.86914 44.4512ZM49.0586 38.6504H33.7656C33.9531 39.4941 34.4395 40.2148 35.2246 40.8125C36.0215 41.4102 37.0469 41.709 38.3008 41.709C40.2461 41.709 42.0098 41.0938 43.5918 39.8633L47.4062 43.8008C45.9883 45.043 44.5996 45.9922 43.2402 46.6484C41.8926 47.293 40.1875 47.6152 38.125 47.6152C34.4805 47.5449 31.6094 46.4902 29.5117 44.4512C27.4258 42.4121 26.3828 39.7812 26.3828 36.5586C26.3828 33.418 27.4902 30.7988 29.7051 28.7012C31.9316 26.5918 34.6387 25.5371 37.8262 25.5371C41.0254 25.5371 43.7324 26.5918 45.9473 28.7012C48.1621 30.7988 49.2695 33.418 49.2695 36.5586C49.2695 37.3086 49.1992 38.0059 49.0586 38.6504ZM37.8262 31.5488C36.8418 31.5488 35.9746 31.8418 35.2246 32.4277C34.4863 33.002 34 33.6816 33.7656 34.4668H41.9043C41.6348 33.6699 41.125 32.9844 40.375 32.4102C39.6367 31.8359 38.7871 31.5488 37.8262 31.5488ZM65.002 25.502C66.3496 25.502 67.7441 25.8535 69.1855 26.5566L66.373 33.1836C65.8691 32.8672 65.1484 32.709 64.2109 32.709C63.0156 32.709 62.0488 33.0898 61.3105 33.8516C60.584 34.6016 60.2207 35.6504 60.2207 36.998V47H52.873V26.1523H59.9922V29.4043L60.1152 29.4746C60.5254 28.4199 61.1582 27.4941 62.0137 26.6973C62.8809 25.9004 63.877 25.502 65.002 25.502ZM85.1816 26.1523H92.5293V47H85.1816V44.0469L85.0059 43.9766C84.4316 45.0547 83.6406 45.9336 82.6328 46.6133C81.625 47.2812 80.4707 47.6152 79.1699 47.6152C76.7441 47.6152 74.8809 46.8887 73.5801 45.4355C72.291 43.9824 71.6465 41.9141 71.6465 39.2305V26.1523H78.9941V37.7539C78.9941 38.5742 79.2754 39.2949 79.8379 39.916C80.4004 40.5371 81.1504 40.8477 82.0879 40.8477C83.0254 40.8477 83.7754 40.5371 84.3379 39.916C84.9004 39.2832 85.1816 38.5625 85.1816 37.7539V26.1523Z" fill="#1A73E8"/>
<path d="M105.2 47C101.04 47 98.72 43.76 98.72 39.12V17.8H101.92V39.04C101.92 41.72 102.92 43.72 105.2 43.72V47Z" fill="#1A73E8"/>
<path d="M120.033 48C113.593 48 109.433 42.36 109.433 36.92C109.433 30.96 113.393 25.88 119.553 25.88C126.233 25.88 131.033 30.76 129.433 38.36H112.913C113.113 41.88 116.273 45.08 120.393 45.12C122.153 45.12 125.793 44.16 126.713 42.56L129.233 44.52C127.153 46.92 123.713 48 120.033 48ZM112.913 35.56H119.613H126.313C126.793 32.92 125.033 28.76 119.633 28.76C115.393 28.76 112.913 32.32 112.913 35.56Z" fill="#1A73E8"/>
<path d="M142.957 47C136.997 47 132.157 42.16 132.157 36.2C132.157 30.28 136.997 25.44 142.957 25.44C148.877 25.44 153.717 30.28 153.717 36.2V47H150.517V42.52C149.117 45.16 146.237 47 142.957 47ZM142.957 43.8C147.117 43.8 150.517 40.4 150.517 36.2C150.517 32.04 147.117 28.64 142.957 28.64C138.757 28.64 135.357 32.04 135.357 36.2C135.357 40.4 138.757 43.8 142.957 43.8Z" fill="#1A73E8"/>
<path d="M160.243 47V26.08H163.323V28.68C164.483 26.64 167.403 25.8 170.403 26.08V29.32C166.843 28.84 163.443 30.72 163.443 34V47H160.243Z" fill="#1A73E8"/>
<path d="M174.683 47V36.04C174.683 29.72 178.803 25.88 184.643 25.88C190.483 25.88 194.563 29.72 194.563 36.04V47H191.363V36.04C191.363 31.52 188.763 29.08 184.643 29.08C180.523 29.08 177.883 31.6 177.883 36.04V47H174.683Z" fill="#1A73E8"/>
</svg>
