<svg width="274" height="66" viewBox="0 0 274 66" fill="none" xmlns="http://www.w3.org/2000/svg">
<g clip-path="url(#clip0_1_3)">
<g clip-path="url(#clip1_1_3)">
<path d="M28.5576 7.76137C31.2433 5.26177 35.3717 6.20665 36.1599 9.43848C36.6757 11.5537 35.6721 13.6801 33.7169 14.6143C31.7808 15.5395 29.5148 14.9799 28.1769 13.2474C28.118 13.1712 28.0491 13.1028 27.9483 12.9898C25.6341 13.6768 23.3065 14.3497 20.9971 15.0801C20.7535 15.1571 20.4828 15.557 20.4514 15.8329C20.1603 18.3896 18.113 20.1298 15.5456 19.8184C14.5496 19.6976 13.9126 19.8921 13.3181 20.7461C12.4069 22.0555 11.3129 23.2363 10.3552 24.5156C10.1357 24.8087 10.0292 25.301 10.0885 25.6663C10.2585 26.7126 10.2935 27.7053 9.76593 28.6767C9.65357 28.8836 9.66181 29.2652 9.78043 29.4703C10.4466 30.6224 11.1381 31.7625 11.8838 32.8641C12.041 33.0964 12.4505 33.2334 12.761 33.2707C13.4154 33.3491 14.0888 33.2767 14.7412 33.3645C17.523 33.7389 18.3027 35.8119 18.1775 38.0188C18.0537 40.2014 16.0577 42.1089 13.9143 42.1973C12.0705 42.2734 10.4859 41.8548 9.59253 40.0035C8.70877 38.1722 8.92343 36.4415 10.4066 34.5416C9.60914 33.2525 8.80842 31.9215 7.95739 30.6235C7.8355 30.4376 7.47217 30.3295 7.21771 30.3242C5.7136 30.293 4.45591 29.824 3.76584 28.3912C3.06334 26.9326 3.46455 25.5671 4.36746 24.3682C5.03112 23.4869 6.10437 23.3904 7.10651 23.5234C7.71327 23.6039 8.01691 23.4046 8.34956 22.9821C9.44171 21.5949 10.5359 20.2077 11.6822 18.8657C12.0772 18.4033 12.1322 18.0578 11.9221 17.4726C11.2697 15.6549 11.4427 13.9107 12.8327 12.4616C14.1643 11.0734 15.8163 10.736 17.5957 11.3909C18.2542 11.6332 18.8866 12.0969 19.3725 12.6097C19.7652 13.024 20.067 13.0967 20.5654 12.9425C22.5669 12.3233 24.5746 11.7235 26.5851 11.1337C27.0648 10.9929 27.2989 10.7987 27.4375 10.2332C27.6443 9.38964 28.1361 8.61594 28.5576 7.76137Z" fill="#1A73E8"/>
<path d="M48.7492 30.6737C49.6724 32.3176 49.6505 33.8942 48.8397 35.5064C48.7203 35.7438 48.7749 36.2123 48.9403 36.4254C49.8384 37.5821 50.819 38.6745 51.7235 39.8265C52.1046 40.312 52.4193 40.4376 53.0495 40.2195C55.1594 39.4891 57.0825 39.917 58.6332 41.5339C60.1169 43.0808 60.5438 44.9474 59.8046 46.9795C59.0547 49.0411 57.5332 50.2443 55.349 50.4701C53.2497 50.6871 51.5579 49.8647 50.3907 48.1096C49.2159 46.3431 49.2507 44.4837 50.181 42.6159C50.2988 42.3794 50.4571 42.163 50.6378 41.8707C49.4136 40.397 48.1847 38.9177 46.9049 37.3771C45.3884 38.03 43.8803 37.9065 42.3751 37.2902C40.7696 36.6329 39.8197 34.5663 40.2819 32.5997C40.6584 30.9975 41.631 29.8973 43.1327 29.2211C43.3979 29.1017 43.7373 28.7515 43.74 28.5045C43.7795 24.9755 43.767 21.4459 43.767 17.943C40.9442 16.6409 39.7626 14.7862 40.2444 12.4776C40.7293 10.1548 42.7887 8.42006 45.0477 8.43162C47.2438 8.44286 48.9115 9.76895 49.3581 11.8591C49.8718 14.2638 48.6911 16.1952 45.8864 17.474C45.8864 21.1338 45.8864 24.8188 45.8864 28.204C46.9257 29.0901 47.8175 29.8505 48.7492 30.6737Z" fill="#1A73E8"/>
<path d="M21.6102 22.3542C24.0746 21.525 26.1523 22.109 27.1064 24.0724C27.5165 24.9163 27.561 25.9898 27.5657 26.96C27.5687 27.5778 27.706 27.9421 28.1941 28.2724C29.0481 28.8502 29.8892 29.4503 30.7046 30.0813C31.423 30.6372 32.0962 30.9601 33.1097 30.8207C34.8769 30.5776 36.192 31.7453 36.3756 33.4251C36.5493 35.0145 35.4972 36.2893 33.7858 36.6396C33.517 36.6946 33.2173 36.9416 33.0718 37.1838C32.7652 37.694 32.5621 38.2653 32.2971 38.8019C31.7995 39.8099 31.4733 40.6586 32.1212 41.9012C33.0874 43.7542 32.0174 45.925 30.1486 46.6746C28.3311 47.4037 26.2745 46.5342 25.5067 44.7121C24.7453 42.9051 25.5724 40.8442 27.3841 40.0376C27.5056 39.9835 27.6409 39.8851 27.7556 39.9024C29.3433 40.1412 29.62 38.896 30.0867 37.8631C30.2921 37.4085 30.5775 36.9723 30.6839 36.4959C30.7799 36.0657 30.7084 35.5891 30.6583 35.1389C30.6297 34.8819 30.3877 34.6178 30.4276 34.3892C30.6424 33.1575 29.8095 32.6277 28.9795 32.0587C28.1836 31.5131 27.3869 30.962 26.6424 30.3502C26.0914 29.8975 25.6588 29.8255 24.9798 30.1864C23.2858 31.0869 20.9258 30.5578 19.7991 29.1468C18.5326 27.5606 18.4448 25.4395 19.7041 23.8974C20.1952 23.2959 20.9219 22.8868 21.6102 22.3542Z" fill="#FDB32A"/>
<path d="M46.2142 52.6003C46.6012 53.1945 46.9632 53.4651 47.7185 53.3295C49.1568 53.0712 50.585 53.9996 51.155 55.3555C51.7215 56.7029 51.3119 58.3087 50.1669 59.2298C48.988 60.1782 47.4096 60.2551 46.1768 59.4243C44.9557 58.6015 44.3079 57.0237 44.8649 55.663C45.1819 54.8888 44.9869 54.4467 44.527 53.9126C43.963 53.2578 43.4315 52.5736 42.9104 51.8836C42.279 51.0478 41.7686 50.3747 40.4029 50.513C38.5183 50.7039 36.9734 48.6906 37.2324 46.8472C37.5007 44.9377 39.3707 43.5572 41.1842 43.9297C43.1677 44.3371 44.414 46.2383 43.7804 48.1212C43.5047 48.9402 43.6429 49.4543 44.1733 50.0501C44.88 50.8441 45.5084 51.7079 46.2142 52.6003Z" fill="#1A73E8"/>
<path d="M58.8151 25.5701C58.9696 25.9855 59.1141 26.3222 59.234 26.6675C59.6003 27.7234 59.9734 28.5665 61.3162 28.94C63.1337 29.4454 63.7993 31.629 62.9505 33.3099C62.108 34.9786 60.0124 35.5946 58.4251 34.6403C56.8101 33.6694 56.3148 31.5941 57.4239 30.0513C57.8347 29.4799 57.8662 29.0354 57.6152 28.4231C57.0356 27.0091 56.5482 25.5568 55.9487 24.1519C55.8126 23.833 55.4078 23.5039 55.0669 23.4187C53.583 23.0479 52.4973 21.9351 52.4 20.5552C52.2909 19.0084 53.0503 17.7197 54.3796 17.1955C55.7294 16.6632 57.267 17.0802 58.1504 18.2181C59.0441 19.3693 59.1131 20.917 58.2016 22.1045C57.8122 22.6117 57.8062 23.0142 58.0371 23.5429C58.3162 24.182 58.5439 24.8435 58.8151 25.5701Z" fill="#FDB32A"/>
<path d="M35.3324 19.1013C37.4669 19.0109 38.6448 19.8131 38.9595 21.4988C39.2505 23.0574 38.3921 24.6213 36.9259 25.2038C35.4612 25.7857 33.7909 25.2002 32.9594 23.8134C31.9027 22.0511 33.0007 19.8064 35.3324 19.1013Z" fill="#FDB32A"/>
</g>
<path d="M81.8691 40.4512C79.584 38.3301 78.4414 35.6992 78.4414 32.5586C78.4414 29.418 79.584 26.7988 81.8691 24.7012C84.166 22.5918 86.9609 21.5371 90.2539 21.5371C94.7891 21.5371 98.041 23.0605 100.01 26.1074L94.4199 30.1504C94.0332 29.5293 93.4883 29.0195 92.7852 28.6211C92.082 28.2227 91.3672 28.0234 90.6406 28.0234C89.4219 28.0234 88.373 28.4746 87.4941 29.377C86.6152 30.2793 86.1758 31.3457 86.1758 32.5762C86.1758 33.7949 86.6152 34.8613 87.4941 35.7754C88.373 36.6777 89.4219 37.1289 90.6406 37.1289C91.3555 37.1289 92.0645 36.9297 92.7676 36.5312C93.4824 36.1211 94.0332 35.5996 94.4199 34.9668L100.01 39.0098C98.0176 42.0801 94.7656 43.6152 90.2539 43.6152C86.9609 43.6152 84.166 42.5605 81.8691 40.4512ZM125.059 34.6504H109.766C109.953 35.4941 110.439 36.2148 111.225 36.8125C112.021 37.4102 113.047 37.709 114.301 37.709C116.246 37.709 118.01 37.0938 119.592 35.8633L123.406 39.8008C121.988 41.043 120.6 41.9922 119.24 42.6484C117.893 43.293 116.188 43.6152 114.125 43.6152C110.48 43.5449 107.609 42.4902 105.512 40.4512C103.426 38.4121 102.383 35.7812 102.383 32.5586C102.383 29.418 103.49 26.7988 105.705 24.7012C107.932 22.5918 110.639 21.5371 113.826 21.5371C117.025 21.5371 119.732 22.5918 121.947 24.7012C124.162 26.7988 125.27 29.418 125.27 32.5586C125.27 33.3086 125.199 34.0059 125.059 34.6504ZM113.826 27.5488C112.842 27.5488 111.975 27.8418 111.225 28.4277C110.486 29.002 110 29.6816 109.766 30.4668H117.904C117.635 29.6699 117.125 28.9844 116.375 28.4102C115.637 27.8359 114.787 27.5488 113.826 27.5488ZM141.002 21.502C142.35 21.502 143.744 21.8535 145.186 22.5566L142.373 29.1836C141.869 28.8672 141.148 28.709 140.211 28.709C139.016 28.709 138.049 29.0898 137.311 29.8516C136.584 30.6016 136.221 31.6504 136.221 32.998V43H128.873V22.1523H135.992V25.4043L136.115 25.4746C136.525 24.4199 137.158 23.4941 138.014 22.6973C138.881 21.9004 139.877 21.502 141.002 21.502ZM161.182 22.1523H168.529V43H161.182V40.0469L161.006 39.9766C160.432 41.0547 159.641 41.9336 158.633 42.6133C157.625 43.2812 156.471 43.6152 155.17 43.6152C152.744 43.6152 150.881 42.8887 149.58 41.4355C148.291 39.9824 147.646 37.9141 147.646 35.2305V22.1523H154.994V33.7539C154.994 34.5742 155.275 35.2949 155.838 35.916C156.4 36.5371 157.15 36.8477 158.088 36.8477C159.025 36.8477 159.775 36.5371 160.338 35.916C160.9 35.2832 161.182 34.5625 161.182 33.7539V22.1523Z" fill="#212427"/>
<path d="M181.2 43C177.04 43 174.72 39.76 174.72 35.12V13.8H177.92V35.04C177.92 37.72 178.92 39.72 181.2 39.72V43Z" fill="#212427"/>
<path d="M196.033 44C189.593 44 185.433 38.36 185.433 32.92C185.433 26.96 189.393 21.88 195.553 21.88C202.233 21.88 207.033 26.76 205.433 34.36H188.913C189.113 37.88 192.273 41.08 196.393 41.12C198.153 41.12 201.793 40.16 202.713 38.56L205.233 40.52C203.153 42.92 199.713 44 196.033 44ZM188.913 31.56H195.613H202.313C202.793 28.92 201.033 24.76 195.633 24.76C191.393 24.76 188.913 28.32 188.913 31.56Z" fill="#212427"/>
<path d="M218.957 43C212.997 43 208.157 38.16 208.157 32.2C208.157 26.28 212.997 21.44 218.957 21.44C224.877 21.44 229.717 26.28 229.717 32.2V43H226.517V38.52C225.117 41.16 222.237 43 218.957 43ZM218.957 39.8C223.117 39.8 226.517 36.4 226.517 32.2C226.517 28.04 223.117 24.64 218.957 24.64C214.757 24.64 211.357 28.04 211.357 32.2C211.357 36.4 214.757 39.8 218.957 39.8Z" fill="#212427"/>
<path d="M236.243 43V22.08H239.323V24.68C240.483 22.64 243.403 21.8 246.403 22.08V25.32C242.843 24.84 239.443 26.72 239.443 30V43H236.243Z" fill="#212427"/>
<path d="M250.683 43V32.04C250.683 25.72 254.803 21.88 260.643 21.88C266.483 21.88 270.563 25.72 270.563 32.04V43H267.363V32.04C267.363 27.52 264.763 25.08 260.643 25.08C256.523 25.08 253.883 27.6 253.883 32.04V43H250.683Z" fill="#212427"/>
</g>
<defs>
<clipPath id="clip0_1_3">
<rect width="274" height="66" fill="white"/>
</clipPath>
<clipPath id="clip1_1_3">
<rect width="100" height="100" fill="white" transform="translate(-17 -17)"/>
</clipPath>
</defs>
</svg>
