<svg width="319" height="100" viewBox="0 0 319 100" fill="none" xmlns="http://www.w3.org/2000/svg">
<path d="M104.869 58.4512C102.584 56.3301 101.441 53.6992 101.441 50.5586C101.441 47.418 102.584 44.7988 104.869 42.7012C107.166 40.5918 109.961 39.5371 113.254 39.5371C117.789 39.5371 121.041 41.0605 123.01 44.1074L117.42 48.1504C117.033 47.5293 116.488 47.0195 115.785 46.6211C115.082 46.2227 114.367 46.0234 113.641 46.0234C112.422 46.0234 111.373 46.4746 110.494 47.377C109.615 48.2793 109.176 49.3457 109.176 50.5762C109.176 51.7949 109.615 52.8613 110.494 53.7754C111.373 54.6777 112.422 55.1289 113.641 55.1289C114.355 55.1289 115.064 54.9297 115.768 54.5312C116.482 54.1211 117.033 53.5996 117.42 52.9668L123.01 57.0098C121.018 60.0801 117.766 61.6152 113.254 61.6152C109.961 61.6152 107.166 60.5605 104.869 58.4512ZM148.059 52.6504H132.766C132.953 53.4941 133.439 54.2148 134.225 54.8125C135.021 55.4102 136.047 55.709 137.301 55.709C139.246 55.709 141.01 55.0938 142.592 53.8633L146.406 57.8008C144.988 59.043 143.6 59.9922 142.24 60.6484C140.893 61.293 139.188 61.6152 137.125 61.6152C133.48 61.5449 130.609 60.4902 128.512 58.4512C126.426 56.4121 125.383 53.7812 125.383 50.5586C125.383 47.418 126.49 44.7988 128.705 42.7012C130.932 40.5918 133.639 39.5371 136.826 39.5371C140.025 39.5371 142.732 40.5918 144.947 42.7012C147.162 44.7988 148.27 47.418 148.27 50.5586C148.27 51.3086 148.199 52.0059 148.059 52.6504ZM136.826 45.5488C135.842 45.5488 134.975 45.8418 134.225 46.4277C133.486 47.002 133 47.6816 132.766 48.4668H140.904C140.635 47.6699 140.125 46.9844 139.375 46.4102C138.637 45.8359 137.787 45.5488 136.826 45.5488ZM164.002 39.502C165.35 39.502 166.744 39.8535 168.186 40.5566L165.373 47.1836C164.869 46.8672 164.148 46.709 163.211 46.709C162.016 46.709 161.049 47.0898 160.311 47.8516C159.584 48.6016 159.221 49.6504 159.221 50.998V61H151.873V40.1523H158.992V43.4043L159.115 43.4746C159.525 42.4199 160.158 41.4941 161.014 40.6973C161.881 39.9004 162.877 39.502 164.002 39.502ZM184.182 40.1523H191.529V61H184.182V58.0469L184.006 57.9766C183.432 59.0547 182.641 59.9336 181.633 60.6133C180.625 61.2812 179.471 61.6152 178.17 61.6152C175.744 61.6152 173.881 60.8887 172.58 59.4355C171.291 57.9824 170.646 55.9141 170.646 53.2305V40.1523H177.994V51.7539C177.994 52.5742 178.275 53.2949 178.838 53.916C179.4 54.5371 180.15 54.8477 181.088 54.8477C182.025 54.8477 182.775 54.5371 183.338 53.916C183.9 53.2832 184.182 52.5625 184.182 51.7539V40.1523Z" fill="#212427"/>
<path d="M204.2 61C200.04 61 197.72 57.76 197.72 53.12V31.8H200.92V53.04C200.92 55.72 201.92 57.72 204.2 57.72V61Z" fill="#212427"/>
<path d="M219.033 62C212.593 62 208.433 56.36 208.433 50.92C208.433 44.96 212.393 39.88 218.553 39.88C225.233 39.88 230.033 44.76 228.433 52.36H211.913C212.113 55.88 215.273 59.08 219.393 59.12C221.153 59.12 224.793 58.16 225.713 56.56L228.233 58.52C226.153 60.92 222.713 62 219.033 62ZM211.913 49.56H218.613H225.313C225.793 46.92 224.033 42.76 218.633 42.76C214.393 42.76 211.913 46.32 211.913 49.56Z" fill="#212427"/>
<path d="M241.957 61C235.997 61 231.157 56.16 231.157 50.2C231.157 44.28 235.997 39.44 241.957 39.44C247.877 39.44 252.717 44.28 252.717 50.2V61H249.517V56.52C248.117 59.16 245.237 61 241.957 61ZM241.957 57.8C246.117 57.8 249.517 54.4 249.517 50.2C249.517 46.04 246.117 42.64 241.957 42.64C237.757 42.64 234.357 46.04 234.357 50.2C234.357 54.4 237.757 57.8 241.957 57.8Z" fill="#212427"/>
<path d="M259.243 61V40.08H262.323V42.68C263.483 40.64 266.403 39.8 269.403 40.08V43.32C265.843 42.84 262.443 44.72 262.443 48V61H259.243Z" fill="#212427"/>
<path d="M273.683 61V50.04C273.683 43.72 277.803 39.88 283.643 39.88C289.483 39.88 293.563 43.72 293.563 50.04V61H290.363V50.04C290.363 45.52 287.763 43.08 283.643 43.08C279.523 43.08 276.883 45.6 276.883 50.04V61H273.683Z" fill="#212427"/>
<g clip-path="url(#clip0_1_3)">
<path d="M45.5576 24.7614C48.2433 22.2618 52.3717 23.2066 53.1599 26.4385C53.6757 28.5537 52.6721 30.6801 50.7169 31.6143C48.7808 32.5395 46.5148 31.9799 45.1769 30.2474C45.118 30.1712 45.0491 30.1028 44.9483 29.9898C42.6341 30.6768 40.3065 31.3497 37.9971 32.0801C37.7535 32.1571 37.4828 32.557 37.4514 32.8329C37.1603 35.3896 35.113 37.1298 32.5456 36.8184C31.5496 36.6976 30.9126 36.8921 30.3181 37.7461C29.4069 39.0555 28.3129 40.2363 27.3552 41.5156C27.1357 41.8087 27.0292 42.301 27.0885 42.6663C27.2585 43.7126 27.2935 44.7053 26.7659 45.6767C26.6536 45.8836 26.6618 46.2652 26.7804 46.4703C27.4466 47.6224 28.1381 48.7625 28.8838 49.8641C29.041 50.0964 29.4505 50.2334 29.761 50.2707C30.4154 50.3491 31.0888 50.2767 31.7412 50.3645C34.523 50.7389 35.3027 52.8119 35.1775 55.0188C35.0537 57.2014 33.0577 59.1089 30.9143 59.1973C29.0705 59.2734 27.4859 58.8548 26.5925 57.0035C25.7088 55.1722 25.9234 53.4415 27.4066 51.5416C26.6091 50.2525 25.8084 48.9215 24.9574 47.6235C24.8355 47.4376 24.4722 47.3295 24.2177 47.3242C22.7136 47.293 21.4559 46.824 20.7658 45.3912C20.0633 43.9326 20.4645 42.5671 21.3675 41.3682C22.0311 40.4869 23.1044 40.3904 24.1065 40.5234C24.7133 40.6039 25.0169 40.4046 25.3496 39.9821C26.4417 38.5949 27.5359 37.2077 28.6822 35.8657C29.0772 35.4033 29.1322 35.0578 28.9221 34.4726C28.2697 32.6549 28.4427 30.9107 29.8327 29.4616C31.1643 28.0734 32.8163 27.736 34.5957 28.3909C35.2542 28.6332 35.8866 29.0969 36.3725 29.6097C36.7652 30.024 37.067 30.0967 37.5654 29.9425C39.5669 29.3233 41.5746 28.7235 43.5851 28.1337C44.0648 27.9929 44.2989 27.7987 44.4375 27.2332C44.6443 26.3896 45.1361 25.6159 45.5576 24.7614Z" fill="#1A73E8"/>
<path d="M65.7492 47.6737C66.6724 49.3176 66.6505 50.8942 65.8397 52.5064C65.7203 52.7438 65.7749 53.2123 65.9403 53.4254C66.8384 54.5821 67.819 55.6745 68.7235 56.8265C69.1046 57.312 69.4193 57.4376 70.0495 57.2195C72.1594 56.4891 74.0825 56.917 75.6332 58.5339C77.1169 60.0808 77.5438 61.9474 76.8046 63.9795C76.0547 66.0411 74.5332 67.2443 72.349 67.4701C70.2497 67.6871 68.5579 66.8647 67.3907 65.1096C66.2159 63.3431 66.2507 61.4837 67.181 59.6159C67.2988 59.3794 67.4571 59.163 67.6378 58.8707C66.4136 57.397 65.1847 55.9177 63.9049 54.3771C62.3884 55.03 60.8803 54.9065 59.3751 54.2902C57.7696 53.6329 56.8197 51.5663 57.2819 49.5997C57.6584 47.9975 58.631 46.8973 60.1327 46.2211C60.3979 46.1017 60.7373 45.7515 60.74 45.5045C60.7795 41.9755 60.767 38.4459 60.767 34.943C57.9442 33.6409 56.7626 31.7862 57.2444 29.4776C57.7293 27.1548 59.7887 25.4201 62.0477 25.4316C64.2438 25.4429 65.9115 26.7689 66.3581 28.8591C66.8718 31.2638 65.6911 33.1952 62.8864 34.474C62.8864 38.1338 62.8864 41.8188 62.8864 45.204C63.9257 46.0901 64.8175 46.8505 65.7492 47.6737Z" fill="#1A73E8"/>
<path d="M38.6102 39.3542C41.0746 38.525 43.1523 39.109 44.1064 41.0724C44.5165 41.9163 44.561 42.9898 44.5657 43.96C44.5687 44.5778 44.706 44.9421 45.1941 45.2724C46.0481 45.8502 46.8892 46.4503 47.7046 47.0813C48.423 47.6372 49.0962 47.9601 50.1097 47.8207C51.8769 47.5776 53.192 48.7453 53.3756 50.4251C53.5493 52.0145 52.4972 53.2893 50.7858 53.6396C50.517 53.6946 50.2173 53.9416 50.0718 54.1838C49.7652 54.694 49.5621 55.2653 49.2971 55.8019C48.7995 56.8099 48.4733 57.6586 49.1212 58.9012C50.0874 60.7542 49.0174 62.925 47.1486 63.6746C45.3311 64.4037 43.2745 63.5342 42.5067 61.7121C41.7453 59.9051 42.5724 57.8442 44.3841 57.0376C44.5056 56.9835 44.6409 56.8851 44.7556 56.9024C46.3433 57.1412 46.62 55.896 47.0867 54.8631C47.2921 54.4085 47.5775 53.9723 47.6839 53.4959C47.7799 53.0657 47.7084 52.5891 47.6583 52.1389C47.6297 51.8819 47.3877 51.6178 47.4276 51.3892C47.6424 50.1575 46.8095 49.6277 45.9795 49.0587C45.1836 48.5131 44.3869 47.962 43.6424 47.3502C43.0914 46.8975 42.6588 46.8255 41.9798 47.1864C40.2858 48.0869 37.9258 47.5578 36.7991 46.1468C35.5326 44.5606 35.4448 42.4395 36.7041 40.8974C37.1952 40.2959 37.9219 39.8868 38.6102 39.3542Z" fill="#FDB32A"/>
<path d="M63.2142 69.6003C63.6012 70.1945 63.9632 70.4651 64.7185 70.3295C66.1568 70.0712 67.585 70.9996 68.155 72.3555C68.7215 73.7029 68.3119 75.3087 67.1669 76.2298C65.988 77.1782 64.4096 77.2551 63.1768 76.4243C61.9557 75.6015 61.3079 74.0237 61.8649 72.663C62.1819 71.8888 61.9869 71.4467 61.527 70.9126C60.963 70.2578 60.4315 69.5736 59.9104 68.8836C59.279 68.0478 58.7686 67.3747 57.4029 67.513C55.5183 67.7039 53.9734 65.6906 54.2324 63.8472C54.5007 61.9377 56.3707 60.5572 58.1842 60.9297C60.1677 61.3371 61.414 63.2383 60.7804 65.1212C60.5047 65.9402 60.6429 66.4543 61.1733 67.0501C61.88 67.8441 62.5084 68.7079 63.2142 69.6003Z" fill="#1A73E8"/>
<path d="M75.8151 42.5701C75.9696 42.9855 76.1142 43.3222 76.234 43.6675C76.6003 44.7234 76.9734 45.5665 78.3162 45.94C80.1337 46.4454 80.7993 48.629 79.9505 50.3099C79.108 51.9786 77.0125 52.5946 75.4251 51.6403C73.8101 50.6694 73.3148 48.5941 74.4239 47.0513C74.8347 46.4799 74.8662 46.0354 74.6152 45.4231C74.0356 44.0091 73.5482 42.5568 72.9487 41.1519C72.8126 40.833 72.4078 40.5039 72.0669 40.4187C70.583 40.0479 69.4973 38.9351 69.4 37.5552C69.291 36.0084 70.0503 34.7197 71.3796 34.1955C72.7294 33.6632 74.267 34.0802 75.1504 35.2181C76.0441 36.3693 76.1131 37.917 75.2016 39.1045C74.8122 39.6117 74.8062 40.0142 75.0371 40.5429C75.3162 41.182 75.5439 41.8435 75.8151 42.5701Z" fill="#FDB32A"/>
<path d="M52.3324 36.1013C54.4669 36.0109 55.6448 36.8131 55.9595 38.4988C56.2505 40.0574 55.3921 41.6213 53.9259 42.2038C52.4612 42.7857 50.7909 42.2002 49.9594 40.8134C48.9027 39.0511 50.0007 36.8064 52.3324 36.1013Z" fill="#FDB32A"/>
</g>
<defs>
<clipPath id="clip0_1_3">
<rect width="100" height="100" fill="white"/>
</clipPath>
</defs>
</svg>
